Coordinates
version=1
nRows=27
nColumns=38
inDegrees=no

Units are S.I. units (second, meters, Newtons, ...)
If the header above contains a line with 'inDegrees', this indicates whether rotational values are in degrees (yes) or radians (no).

endheader
time	pelvis_tilt	pelvis_list	pelvis_rotation	pelvis_tx	pelvis_ty	pelvis_tz	hip_flexion_r	hip_adduction_r	hip_rotation_r	knee_angle_r	ankle_angle_r	subtalar_angle_r	mtp_angle_r	hip_flexion_l	hip_adduction_l	hip_rotation_l	knee_angle_l	ankle_angle_l	subtalar_angle_l	mtp_angle_l	lumbar_extension	lumbar_bending	lumbar_rotation	arm_flex_r	arm_add_r	arm_rot_r	elbow_flex_r	pro_sup_r	wrist_flex_r	wrist_dev_r	arm_flex_l	arm_add_l	arm_rot_l	elbow_flex_l	pro_sup_l	wrist_flex_l	wrist_dev_l
1.73	0.693611	1.4911	1.0756	0.425139	1.4206	1.04367	0.353639	-0.0547227	-0.19564	0	-0.25519	0	0	-0.196325	-0.0293433	-0.313873	0.12454	-0.111376	0	0	-0.281753	0.0303557	-0.0506298	-0.0829013	-0.370666	0.399752	0.669808	0.920227	0	0	0.00456849	-0.67747	0.232569	0.944527	1.29398	0	0
1.74	0.612635	1.48864	1.16358	0.4243	1.43342	1.04091	0.355712	-0.0580446	-0.20135	0	-0.251756	0	0	-0.199431	-0.02883	-0.313822	0.133874	-0.105883	0	0	-0.274607	0.0261051	-0.0549298	-0.0841825	-0.366379	0.39992	0.664741	0.917858	0	0	0.00586236	-0.681479	0.233044	0.948365	1.295	0	0
1.75	0.556252	1.48684	1.22653	0.423576	1.44638	1.03828	0.354749	-0.0600998	-0.195732	0	-0.248664	0	0	-0.203335	-0.0301122	-0.313105	0.145284	-0.103708	0	0	-0.269869	0.0233612	-0.0579817	-0.0862164	-0.363136	0.3996	0.662383	0.916294	0	0	0.00775301	-0.684505	0.233245	0.951113	1.2957	0	0
1.76	0.527889	1.48514	1.2602	0.423391	1.45959	1.03573	0.353937	-0.0528979	-0.205257	0	-0.245966	0	0	-0.206107	-0.0349652	-0.316882	0.163071	-0.0953616	0	0	-0.265868	0.0211591	-0.0607679	-0.0858176	-0.358069	0.401955	0.656986	0.911306	0	0	0.00602547	-0.689122	0.230774	0.955914	1.29683	0	0
1.77	0.552941	1.49314	1.23632	0.42303	1.47093	1.03381	0.383078	-0.0608648	-0.197845	0	-0.241521	0	0	-0.219096	-0.038684	-0.31761	0.179894	-0.0939652	0	0	-0.267916	0.0202789	-0.0629248	-0.0836351	-0.35521	0.402455	0.65658	0.909219	0	0	0.0085835	-0.688495	0.23225	0.959097	1.2972	0	0
1.78	0.516313	1.49358	1.27811	0.422192	1.4846	1.03147	0.381697	-0.0655849	-0.179297	0	-0.236464	0	0	-0.223292	-0.0413273	-0.319129	0.198197	-0.0921884	0	0	-0.266396	0.0187419	-0.0647627	-0.0862109	-0.352528	0.401448	0.655667	0.90617	0	0	0.00682935	-0.690198	0.230176	0.961489	1.29757	0	0
1.79	0.501598	1.48727	1.29974	0.420952	1.50026	1.02962	0.350787	-0.0538565	-0.170857	0	-0.233565	0	0	-0.221442	-0.0482653	-0.323853	0.217962	-0.0899929	0	0	-0.264939	0.0225276	-0.0638682	-0.0893636	-0.350883	0.40163	0.651197	0.899477	0	0	0.00228768	-0.691241	0.223716	0.960309	1.29905	0	0
1.8	0.55111	1.4896	1.25469	0.419796	1.51448	1.0284	0.347562	-0.0459084	-0.169403	0	-0.237381	0	0	-0.228948	-0.0566405	-0.324323	0.2375	-0.0906517	0	0	-0.26767	0.0284807	-0.0638325	-0.0896938	-0.34919	0.402344	0.647098	0.89517	0	0	-0.000109187	-0.688273	0.220571	0.958121	1.29993	0	0
1.81	0.869652	1.47255	0.929099	0.41798	1.52634	1.03172	0.363495	-0.00608012	-0.244053	0	-0.286079	0	0	-0.226756	-0.090465	-0.326618	0.262062	-0.0999799	0	0	-0.279978	0.0706769	-0.0442906	-0.063974	-0.357507	0.42472	0.619316	0.876865	0	0	0.0135604	-0.655225	0.205272	0.932525	1.31949	0	0
1.82	0.804499	1.49463	1.01285	0.415963	1.54346	1.02766	0.336883	-0.0203338	-0.201638	0	-0.293571	0	0	-0.245711	-0.0837427	-0.327543	0.286715	-0.101921	0	0	-0.28	0.0553531	-0.0633195	-0.084242	-0.353194	0.420121	0.632704	0.871061	0	0	-0.00577138	-0.664359	0.196017	0.942155	1.32107	0	0
1.83	1.09951	1.47731	0.709141	0.414603	1.55525	1.03144	0.348927	0.0106346	-0.28872	2.43051e-10	-0.363694	0	0	-0.245869	-0.113418	-0.32753	0.31671	-0.117876	0	0	-0.301525	0.0936154	-0.046084	-0.0565804	-0.363088	0.446464	0.613236	0.84838	0	0	0.00192682	-0.637301	0.177729	0.923715	1.33635	0	0
1.84	1.17555	1.47554	0.637491	0.41298	1.56967	1.03125	0.350993	0.0121285	-0.316635	0.0393005	-0.382993	0	0	-0.246294	-0.124456	-0.323947	0.351366	-0.129716	0	0	-0.306201	0.10436	-0.0462016	-0.0540474	-0.364959	0.457032	0.608816	0.83314	0	0	-0.00368708	-0.627677	0.167311	0.915816	1.34145	0	0
1.85	1.10729	1.49516	0.718526	0.41126	1.58586	1.02776	0.332566	-0.00586742	-0.20657	0.0428232	-0.35848	0	0	-0.248437	-0.113805	-0.317789	0.390918	-0.145224	0	0	-0.300578	0.0868548	-0.0626036	-0.0719684	-0.362209	0.454896	0.624249	0.816826	0	0	-0.0241312	-0.637508	0.16479	0.923112	1.33161	0	0
1.86	1.30112	1.46599	0.518506	0.409793	1.59805	1.03199	0.357595	0.0168106	-0.363046	0.123799	-0.366701	0	0	-0.234473	-0.148454	-0.308132	0.435766	-0.167539	0	0	-0.310997	0.129618	-0.0395398	-0.0534649	-0.370116	0.470533	0.603398	0.8023	0	0	-0.00693632	-0.60654	0.163332	0.89012	1.34041	0	0
1.87	1.29122	1.4856	0.539316	0.408049	1.61372	1.02969	0.338734	0.00538663	-0.215971	0.135115	-0.307736	0	0	-0.232172	-0.136946	-0.295784	0.485892	-0.193132	0	0	-0.307994	0.114813	-0.0519491	-0.0722978	-0.368785	0.463229	0.621732	0.787012	0	0	-0.0239809	-0.611602	0.160208	0.893316	1.335	0	0
1.88	1.40239	1.48032	0.430668	0.406815	1.62743	1.03134	0.335024	0.0166942	-0.222836	0.16913	-0.286314	0	0	-0.222536	-0.149731	-0.282225	0.542063	-0.215831	0	0	-0.31606	0.129628	-0.0460919	-0.0728102	-0.370305	0.461838	0.621864	0.77822	0	0	-0.0238283	-0.601293	0.16138	0.880142	1.33377	0	0
1.89	1.4686	1.47502	0.366022	0.40584	1.64078	1.03268	0.332083	0.0239914	-0.210535	0.205308	-0.263669	0	0	-0.205969	-0.158623	-0.261302	0.60376	-0.239072	0	0	-0.321988	0.14212	-0.0398927	-0.073901	-0.371601	0.45972	0.62315	0.770301	0	0	-0.0245832	-0.59183	0.162656	0.868325	1.33096	0	0
1.9	1.52474	1.4718	0.314858	0.404857	1.6541	1.03383	0.325414	0.0311281	-0.220618	0.226692	-0.239973	0	0	-0.188308	-0.166972	-0.239799	0.66356	-0.268931	0	0	-0.326785	0.152137	-0.0375441	-0.0758585	-0.370895	0.45703	0.623872	0.761681	0	0	-0.0252247	-0.586095	0.168616	0.856854	1.3263	0	0
1.91	1.56011	1.47223	0.28559	0.403741	1.6671	1.03485	0.316113	0.0313727	-0.218095	0.24799	-0.218491	0	0	-0.169014	-0.171753	-0.220928	0.720315	-0.297967	0	0	-0.330604	0.157021	-0.0387639	-0.0760787	-0.367812	0.45557	0.621885	0.755637	0	0	-0.0270001	-0.584021	0.176837	0.847781	1.32026	0	0
1.92	1.59214	1.47469	0.262692	0.402453	1.67995	1.03572	0.304159	0.0299339	-0.22797	0.260525	-0.200097	0	0	-0.148272	-0.175214	-0.202434	0.775284	-0.327452	0	0	-0.333395	0.159139	-0.0442196	-0.0761826	-0.363093	0.454511	0.619209	0.750747	0	0	-0.0298036	-0.58573	0.188236	0.841242	1.31238	0	0
1.93	1.61631	1.47811	0.249572	0.401037	1.6926	1.03646	0.29105	0.0277779	-0.242938	0.266429	-0.182197	0	0	-0.124921	-0.1769	-0.182043	0.829277	-0.358618	0	0	-0.334625	0.15935	-0.0517258	-0.0768917	-0.358098	0.453963	0.617057	0.746067	0	0	-0.0322796	-0.590835	0.205076	0.836482	1.30133	0	0
1.94	1.62259	1.48155	0.254407	0.399465	1.70488	1.03718	0.277887	0.0240129	-0.247561	0.275129	-0.16354	0	0	-0.0983989	-0.176279	-0.160502	0.881316	-0.387841	0	0	-0.334064	0.158757	-0.0590045	-0.0778398	-0.353948	0.453854	0.615212	0.741821	0	0	-0.0337783	-0.596586	0.224239	0.832131	1.29195	0	0
1.95	1.63495	1.48497	0.25364	0.39788	1.71703	1.03813	0.263135	0.021501	-0.258199	0.277768	-0.149036	0	0	-0.0720269	-0.175319	-0.139875	0.930283	-0.40833	0	0	-0.333833	0.158087	-0.0662727	-0.0789946	-0.350159	0.45352	0.613541	0.737537	0	0	-0.0349281	-0.602359	0.242844	0.828196	1.2853	0	0
1.96	1.63026	1.48826	0.268547	0.396342	1.72912	1.03921	0.249512	0.0194896	-0.266735	0.278147	-0.135858	0	0	-0.0445664	-0.173974	-0.122583	0.975923	-0.413208	0	0	-0.331641	0.156679	-0.072194	-0.0800909	-0.346763	0.454163	0.610326	0.732731	0	0	-0.0357199	-0.607905	0.262742	0.823271	1.27948	0	0
1.97	1.61185	1.49146	0.293273	0.394818	1.74119	1.04043	0.237308	0.018157	-0.268859	0.278439	-0.124138	0	0	-0.0178426	-0.172464	-0.112467	1.01675	-0.400341	0	0	-0.328564	0.154531	-0.0746847	-0.0812019	-0.345125	0.455674	0.60699	0.727225	0	0	-0.0368883	-0.611507	0.281204	0.817229	1.2746	0	0
1.98	1.60021	1.49486	0.309136	0.393296	1.75311	1.04188	0.22423	0.0172866	-0.267663	0.277882	-0.113837	0	0	0.00702805	-0.170056	-0.10515	1.05333	-0.374829	0	0	-0.32687	0.152312	-0.0750742	-0.0824958	-0.345278	0.45679	0.605342	0.721051	0	0	-0.0380369	-0.613684	0.297281	0.811077	1.2699	0	0
1.99	1.59998	1.49888	0.312522	0.391815	1.76489	1.04355	0.209397	0.0163443	-0.265719	0.275563	-0.104403	0	0	0.0298938	-0.165749	-0.098112	1.08576	-0.338842	0	0	-0.326714	0.149693	-0.0742155	-0.0844464	-0.346524	0.456268	0.605645	0.713837	0	0	-0.0387563	-0.615018	0.311662	0.804744	1.26412	0	0
